# xmcd
# 
# Track frame offsets:
#     150
#     15316
#     33070
#     47092
#     63646
# 
# Disc length: 1037
# 
# Revision: 0
# Processed by: cddbd v1.5.2PL0 Copyright (c) Steve Scherf et al.
# Submitted via: fre:ac v1.1beta1pre3
# 
DISCID=33040b05
DTITLE=Mordhundarna - Svart Gift
DYEAR=2015
DGENRE=Punk
TTITLE0=Den Här Stan
TTITLE1=Containerbrand
TTITLE2=En Tokig
TTITLE3=Människor Som Hatar
TTITLE4=Aldrig Sitta Still
EXTD=
EXTT0=
EXTT1=
EXTT2=
EXTT3=
EXTT4=
PLAYORDER=
